<?xml version="1.0" standalone="no"?>
<!DOCTYPE svg PUBLIC "-//W3C//DTD SVG 20010904//EN"
 "http://www.w3.org/TR/2001/REC-SVG-20010904/DTD/svg10.dtd">
<svg version="1.0" xmlns="http://www.w3.org/2000/svg"
 width="333.000000pt" height="500.000000pt" viewBox="0 0 333.000000 500.000000"
 preserveAspectRatio="xMidYMid meet">

<g transform="translate(0.000000,500.000000) scale(0.100000,-0.100000)"
fill="#000000" stroke="none">
<path d="M1147 4050 c-14 -11 -29 -31 -33 -43 -4 -12 -27 -42 -50 -66 -44 -44
-44 -45 -44 -117 0 -64 -3 -75 -20 -84 -12 -6 -30 -8 -40 -5 -14 4 -22 1 -27
-12 -3 -10 -11 -24 -16 -31 -6 -8 -21 -54 -34 -104 -12 -50 -25 -93 -27 -96
-3 -2 -56 -6 -117 -9 -85 -2 -127 1 -173 14 -34 9 -95 18 -136 18 -50 1 -85 7
-105 18 -18 10 -52 17 -87 17 -50 0 -60 3 -74 25 -17 25 -57 34 -69 15 -3 -5
-26 -10 -51 -10 l-44 0 0 -656 0 -656 43 5 c23 3 62 10 87 17 25 6 54 13 65
15 149 31 188 37 232 36 28 -1 54 3 58 9 9 15 174 1 206 -17 23 -14 29 -13 62
5 30 16 45 18 83 11 43 -8 83 -39 84 -65 0 -6 23 -31 50 -56 47 -43 50 -48 50
-96 0 -28 -4 -62 -10 -77 -9 -23 -8 -26 13 -24 43 4 57 -1 57 -20 0 -10 7 -21
15 -25 8 -3 15 -15 15 -26 0 -26 12 -25 74 6 28 14 58 30 66 34 25 12 54 70
42 82 -15 15 -4 35 33 58 19 12 37 29 40 40 4 13 19 20 58 25 88 10 107 16
107 31 0 33 77 55 246 70 88 8 90 4 65 -148 -35 -209 -38 -229 -33 -254 2 -13
11 -24 19 -24 10 0 12 6 8 20 -5 15 2 29 25 50 18 17 36 30 40 30 16 0 20 -36
11 -84 -10 -52 -8 -54 66 -71 29 -6 34 -3 42 17 14 38 39 54 62 40 28 -18 57
-15 64 7 3 10 1 40 -5 67 -10 42 -9 50 6 61 13 9 20 10 25 2 5 -8 13 -8 29 1
25 13 40 1 40 -32 0 -25 39 -63 52 -50 11 11 -26 90 -46 98 -21 8 -26 42 -11
72 8 15 16 34 19 44 5 18 73 33 105 23 14 -4 23 0 31 15 12 23 5 60 -12 60 -6
0 -6 6 2 15 16 20 30 19 30 -2 0 -15 2 -15 19 3 34 34 61 54 76 54 8 0 15 4
15 9 0 4 28 9 62 10 34 1 71 8 83 15 26 17 186 21 478 11 l187 -6 0 475 0 476
-22 1 c-84 4 -98 8 -130 34 -18 15 -43 43 -56 61 -41 61 -99 72 -150 29 -35
-29 -48 -31 -103 -8 -39 15 -45 15 -95 -2 -30 -10 -54 -22 -54 -26 0 -5 -14
-16 -30 -24 -27 -14 -35 -14 -76 0 -71 24 -178 5 -259 -45 -45 -28 -104 -26
-159 5 -54 30 -75 31 -118 5 -42 -26 -84 -25 -127 1 -32 19 -33 22 -28 64 6
43 6 44 -28 55 -18 6 -72 10 -120 9 -97 -3 -100 -1 -146 78 -54 91 -69 132
-78 201 -10 79 -21 103 -65 150 -38 42 -151 108 -213 127 -25 8 -49 18 -52 23
-14 21 -48 22 -74 2z m51 -312 c4 -32 -34 -64 -55 -46 -20 16 -16 45 9 62 29
21 42 16 46 -16z m608 -341 c31 12 12 -9 -21 -23 -19 -8 -35 -19 -35 -24 0 -6
-11 -10 -25 -10 -18 0 -25 5 -25 20 0 11 7 20 15 20 8 0 15 4 15 9 0 11 54 19
58 9 2 -4 10 -4 18 -1z m-848 -85 c3 -16 -2 -22 -15 -22 -11 0 -24 -5 -30 -11
-13 -13 -33 -4 -33 16 0 18 40 46 60 43 8 -2 16 -13 18 -26z m682 -22 c0 -5
-4 -10 -10 -10 -5 0 -10 5 -10 10 0 6 5 10 10 10 6 0 10 -4 10 -10z m96 -77
c10 -39 -4 -69 -40 -88 -29 -16 -39 -17 -61 -7 -47 21 -43 57 11 115 21 23 26
24 54 14 18 -7 33 -21 36 -34z m209 -381 c-3 -3 -11 0 -18 7 -9 10 -8 11 6 5
10 -3 15 -9 12 -12z m-40 -32 c3 -5 12 -7 20 -4 9 4 18 -1 22 -12 4 -12 -2
-24 -23 -40 -16 -13 -32 -20 -35 -16 -7 6 -13 55 -10 75 1 10 19 9 26 -3z
m-991 -133 c-3 -9 -12 -17 -20 -17 -17 0 -19 37 -1 43 18 7 29 -7 21 -26z
m1284 -323 c12 -8 22 -21 22 -28 0 -14 65 -37 84 -30 7 3 20 -4 30 -14 15 -17
15 -20 1 -25 -11 -5 -15 0 -15 16 -1 18 -3 17 -15 -10 -11 -26 -38 -46 -67
-48 -4 0 -13 -8 -21 -19 -12 -16 -18 -17 -50 -7 -19 7 -43 24 -52 38 -14 21
-15 32 -5 71 18 74 42 89 88 56z m-170 -425 l-3 -24 -13 23 c-7 12 -10 27 -6
33 10 17 26 -6 22 -32z"/>
<path d="M2510 2306 c0 -9 30 -14 35 -6 4 6 -3 10 -14 10 -12 0 -21 -2 -21 -4z"/>
<path d="M1456 2173 c-12 -12 -6 -33 9 -33 8 0 15 6 15 14 0 17 -14 28 -24 19z"/>
<path d="M920 2000 c0 -11 5 -20 10 -20 6 0 10 9 10 20 0 11 -4 20 -10 20 -5
0 -10 -9 -10 -20z"/>
<path d="M1580 2000 c-7 -14 -8 -26 0 -39 5 -11 10 -28 10 -39 0 -10 11 -25
25 -32 14 -7 25 -19 25 -27 0 -7 5 -13 10 -13 6 0 10 13 10 28 0 15 5 33 10
38 6 6 7 25 4 43 -5 24 -15 35 -42 46 -43 18 -39 19 -52 -5z"/>
<path d="M325 1970 c-3 -5 -15 -10 -26 -10 -11 0 -22 -7 -25 -15 -4 -8 -14
-15 -24 -15 -10 0 -23 -7 -30 -15 -7 -8 -21 -15 -31 -15 -11 0 -19 -4 -19 -8
0 -11 -72 -92 -82 -92 -13 0 -48 -34 -48 -47 0 -7 -4 -13 -10 -13 -5 0 -10
-11 -10 -24 0 -14 -4 -28 -10 -31 -5 -3 -10 -30 -10 -59 0 -51 1 -53 25 -48
20 3 25 0 25 -16 0 -11 8 -22 20 -25 11 -3 20 -12 20 -21 0 -18 15 -21 25 -6
3 6 14 10 24 10 10 0 24 7 32 16 8 9 21 13 35 10 14 -4 24 -1 28 9 3 8 11 14
18 13 18 -4 16 12 -3 40 -16 22 -18 23 -47 8 -26 -14 -31 -14 -42 -1 -10 12
-8 19 11 35 29 24 57 26 66 4 4 -11 8 -12 13 -4 4 7 3 25 -3 40 -12 31 3 60
29 60 16 0 54 -35 54 -50 0 -5 7 -10 15 -10 11 0 13 8 8 33 -3 17 -10 34 -15
35 -4 2 -8 12 -8 23 0 22 20 25 38 7 10 -10 15 -10 22 2 6 8 7 22 3 30 -4 8
-7 36 -7 63 0 26 -4 47 -8 47 -4 0 -8 -6 -8 -14 0 -22 -19 -30 -26 -11 -4 10
1 21 12 29 15 12 16 16 5 30 -15 18 -27 20 -36 6z m-97 -227 c-4 -20 -66 -65
-82 -60 -26 9 -16 37 21 56 49 24 65 25 61 4z"/>
<path d="M2915 1899 c-6 -9 16 -44 40 -61 33 -24 34 20 2 50 -26 25 -33 27
-42 11z"/>
<path d="M845 1820 c-8 -13 4 -32 16 -25 12 8 12 35 0 35 -6 0 -13 -4 -16 -10z"/>
<path d="M3101 1781 c-11 -7 -9 -11 8 -20 21 -12 27 -6 13 16 -5 7 -13 9 -21
4z"/>
<path d="M391 1744 c0 -11 3 -14 6 -6 3 7 2 16 -1 19 -3 4 -6 -2 -5 -13z"/>
<path d="M3165 1730 c3 -5 10 -10 16 -10 5 0 9 5 9 10 0 6 -7 10 -16 10 -8 0
-12 -4 -9 -10z"/>
<path d="M895 1680 c3 -5 8 -10 11 -10 2 0 4 5 4 10 0 6 -5 10 -11 10 -5 0 -7
-4 -4 -10z"/>
<path d="M979 1668 c-1 -2 -3 -16 -5 -32 -2 -16 -9 -33 -16 -37 -10 -7 -10
-11 0 -21 11 -11 15 -9 25 7 14 25 19 85 6 85 -5 0 -10 -1 -10 -2z"/>
<path d="M420 1650 c0 -5 5 -10 11 -10 5 0 7 5 4 10 -3 6 -8 10 -11 10 -2 0
-4 -4 -4 -10z"/>
<path d="M350 1609 c0 -5 5 -7 10 -4 6 3 10 8 10 11 0 2 -4 4 -10 4 -5 0 -10
-5 -10 -11z"/>
<path d="M2341 1564 c0 -11 3 -14 6 -6 3 7 2 16 -1 19 -3 4 -6 -2 -5 -13z"/>
<path d="M2655 1550 c-3 -5 -1 -10 4 -10 6 0 11 5 11 10 0 6 -2 10 -4 10 -3 0
-8 -4 -11 -10z"/>
<path d="M21 1534 c0 -11 3 -14 6 -6 3 7 2 16 -1 19 -3 4 -6 -2 -5 -13z"/>
<path d="M274 1515 c-10 -8 -14 -15 -8 -15 6 0 17 7 24 15 16 19 9 19 -16 0z"/>
<path d="M994 1519 c-3 -6 0 -15 7 -20 14 -8 32 9 23 23 -7 11 -22 10 -30 -3z"/>
<path d="M2131 1514 c0 -11 3 -14 6 -6 3 7 2 16 -1 19 -3 4 -6 -2 -5 -13z"/>
<path d="M2177 1497 c-3 -7 -1 -20 3 -28 7 -11 10 -10 16 4 4 10 2 23 -3 28
-7 7 -12 6 -16 -4z"/>
<path d="M2448 1503 c7 -3 16 -2 19 1 4 3 -2 6 -13 5 -11 0 -14 -3 -6 -6z"/>
<path d="M2314 1479 c-3 -6 -1 -16 5 -22 8 -8 11 -5 11 11 0 24 -5 28 -16 11z"/>
<path d="M2620 1479 c0 -5 5 -7 10 -4 6 3 10 8 10 11 0 2 -4 4 -10 4 -5 0 -10
-5 -10 -11z"/>
<path d="M7 1473 c-14 -13 -7 -63 8 -63 18 0 21 -46 2 -53 -9 -4 -9 -7 1 -18
11 -12 14 -12 22 1 6 8 8 21 5 28 -3 8 -5 22 -5 33 0 10 -7 19 -15 19 -18 0
-20 31 -3 48 7 7 8 12 2 12 -6 0 -14 -3 -17 -7z"/>
<path d="M396 1471 c-3 -5 1 -11 9 -15 9 -3 15 0 15 9 0 16 -16 20 -24 6z"/>
<path d="M2975 1460 c-3 -5 -1 -10 4 -10 6 0 11 5 11 10 0 6 -2 10 -4 10 -3 0
-8 -4 -11 -10z"/>
<path d="M105 1450 c3 -5 8 -10 11 -10 2 0 4 5 4 10 0 6 -5 10 -11 10 -5 0 -7
-4 -4 -10z"/>
<path d="M2779 1443 c-11 -13 -11 -17 -1 -20 6 -3 12 -11 12 -19 0 -8 5 -14
10 -14 11 0 10 59 -1 66 -4 2 -13 -4 -20 -13z"/>
<path d="M284 1435 c3 -8 0 -15 -6 -15 -6 0 -4 -8 5 -18 21 -23 21 -36 2 -56
-9 -8 -22 -32 -30 -53 -7 -21 -14 -30 -14 -20 -1 21 -5 21 -34 2 -14 -9 -41
-14 -66 -12 -41 2 -42 3 -37 31 5 23 4 26 -8 17 -7 -6 -22 -8 -31 -4 -13 4
-16 3 -11 -5 4 -7 2 -12 -3 -12 -6 0 -11 -10 -11 -22 0 -12 -7 -30 -17 -40
-14 -16 -14 -18 -1 -18 9 0 21 -7 28 -15 11 -13 8 -16 -19 -21 -25 -5 -31 -12
-31 -31 0 -22 2 -24 16 -12 9 7 23 14 31 15 23 4 34 18 37 48 1 14 6 29 11 34
4 4 5 1 1 -5 -8 -15 10 -18 19 -4 3 6 -3 14 -12 20 -10 6 -13 11 -7 11 5 0 15
-5 22 -12 8 -8 15 -8 25 1 16 13 60 1 72 -19 12 -19 66 49 59 75 -4 16 1 24
21 33 15 7 25 18 22 25 -15 41 -17 57 -8 57 6 0 11 -8 12 -17 0 -16 1 -16 8 1
5 13 2 25 -11 38 -22 22 -42 24 -34 3z m-199 -165 c3 -5 1 -10 -4 -10 -6 0
-11 5 -11 10 0 6 2 10 4 10 3 0 8 -4 11 -10z"/>
<path d="M2050 1435 c-10 -13 -9 -15 9 -15 11 0 21 4 21 9 0 18 -18 21 -30 6z"/>
<path d="M2125 1440 c3 -5 11 -10 16 -10 6 0 7 5 4 10 -3 6 -11 10 -16 10 -6
0 -7 -4 -4 -10z"/>
<path d="M2486 1434 c-4 -10 -1 -14 6 -12 15 5 23 28 10 28 -5 0 -13 -7 -16
-16z"/>
<path d="M150 1424 c0 -7 6 -14 13 -17 6 -2 9 -7 6 -11 -4 -4 -14 0 -23 9 -15
15 -17 15 -22 0 -10 -24 10 -39 33 -26 14 7 23 7 31 -1 7 -7 15 -8 19 -4 5 4
0 13 -10 20 -19 14 -24 31 -6 20 7 -4 10 -1 7 7 -6 18 -48 21 -48 3z"/>
<path d="M410 1426 c0 -9 5 -16 10 -16 6 0 10 4 10 9 0 6 -4 13 -10 16 -5 3
-10 -1 -10 -9z"/>
<path d="M490 1430 c0 -5 5 -10 10 -10 6 0 10 5 10 10 0 6 -4 10 -10 10 -5 0
-10 -4 -10 -10z"/>
<path d="M2271 1424 c0 -11 3 -14 6 -6 3 7 2 16 -1 19 -3 4 -6 -2 -5 -13z"/>
<path d="M2317 1433 c-4 -3 -7 -11 -7 -17 0 -6 5 -5 12 2 6 6 9 14 7 17 -3 3
-9 2 -12 -2z"/>
<path d="M934 1415 c-4 -9 -12 -14 -19 -11 -12 4 -30 -22 -21 -31 6 -7 69 32
68 42 -1 17 -22 17 -28 0z"/>
<path d="M1140 1420 c0 -5 5 -10 10 -10 6 0 10 5 10 10 0 6 -4 10 -10 10 -5 0
-10 -4 -10 -10z"/>
<path d="M2188 1400 c-15 -4 -29 -5 -32 -2 -4 3 -12 -3 -19 -12 -11 -15 -17
-17 -35 -7 -18 10 -22 9 -22 -4 0 -11 11 -15 45 -15 25 0 51 5 58 10 7 6 21
17 32 25 22 16 14 17 -27 5z"/>
<path d="M2755 1399 c-4 -6 -5 -12 -2 -15 2 -3 7 2 10 11 7 17 1 20 -8 4z"/>
<path d="M390 1391 c0 -6 7 -11 16 -11 9 0 14 -6 11 -12 -2 -7 -18 -13 -35
-12 -18 0 -32 -3 -32 -8 0 -4 7 -8 16 -8 8 0 13 -4 10 -9 -4 -5 2 -8 11 -7 9
2 19 8 21 14 2 7 19 19 38 28 19 9 34 21 34 27 0 5 -9 2 -19 -7 -18 -17 -21
-17 -45 -1 -16 11 -26 13 -26 6z"/>
<path d="M770 1390 c0 -5 5 -10 10 -10 6 0 10 5 10 10 0 6 -4 10 -10 10 -5 0
-10 -4 -10 -10z"/>
<path d="M1997 1380 c-19 -22 -23 -80 -6 -80 6 0 9 6 6 13 -2 6 4 22 15 34 14
15 17 26 11 37 -8 14 -11 13 -26 -4z"/>
<path d="M2258 1355 c-2 -31 1 -45 9 -45 17 0 17 -30 1 -30 -7 0 -5 -5 5 -11
37 -22 50 16 16 47 -16 14 -20 27 -16 51 3 18 2 33 -3 33 -4 0 -10 -20 -12
-45z"/>
<path d="M2365 1389 c-4 -6 -5 -12 -2 -15 2 -3 7 2 10 11 7 17 1 20 -8 4z"/>
<path d="M2436 1384 c-5 -14 -4 -15 9 -4 17 14 19 20 6 20 -5 0 -12 -7 -15
-16z"/>
<path d="M2610 1390 c0 -5 7 -10 16 -10 8 0 12 5 9 10 -3 6 -10 10 -16 10 -5
0 -9 -4 -9 -10z"/>
<path d="M1130 1380 c0 -5 5 -10 10 -10 6 0 10 5 10 10 0 6 -4 10 -10 10 -5 0
-10 -4 -10 -10z"/>
<path d="M505 1370 c3 -5 16 -10 28 -10 18 0 19 2 7 10 -20 13 -43 13 -35 0z"/>
<path d="M1901 1364 c0 -11 3 -14 6 -6 3 7 2 16 -1 19 -3 4 -6 -2 -5 -13z"/>
<path d="M2312 1355 c-10 -21 -9 -25 3 -25 9 0 15 10 15 25 0 14 -2 25 -3 25
-2 0 -9 -11 -15 -25z"/>
<path d="M1700 1349 c0 -11 5 -17 10 -14 6 3 10 13 10 21 0 8 -4 14 -10 14 -5
0 -10 -9 -10 -21z"/>
<path d="M135 1350 c-3 -6 1 -7 9 -4 18 7 21 14 7 14 -6 0 -13 -4 -16 -10z"/>
<path d="M2463 1343 c-13 -8 -23 -24 -23 -34 0 -11 -4 -19 -9 -19 -10 0 -19
-40 -13 -58 7 -23 22 -12 16 12 -3 13 0 29 8 37 8 8 17 22 21 32 4 11 16 21
27 24 11 3 17 9 14 14 -7 12 -15 11 -41 -8z"/>
<path d="M2060 1342 c0 -4 -10 -12 -22 -17 -24 -11 -46 -41 -36 -50 3 -3 22
11 42 31 39 40 41 44 26 44 -5 0 -10 -3 -10 -8z"/>
<path d="M2525 1329 c-4 -13 -2 -26 6 -34 18 -16 69 -28 69 -16 0 5 14 12 30
16 17 4 30 11 30 16 0 15 -32 10 -51 -7 -23 -21 -53 -11 -46 15 3 12 -1 22
-10 25 -21 8 -21 8 -28 -15z"/>
<path d="M2927 1343 c-4 -3 -7 -11 -7 -17 0 -6 5 -5 12 2 6 6 9 14 7 17 -3 3
-9 2 -12 -2z"/>
<path d="M210 1330 c-10 -6 -12 -12 -5 -19 7 -7 14 -4 23 9 13 21 6 25 -18 10z"/>
<path d="M452 1321 c-25 -13 -30 -19 -20 -29 18 -18 38 -15 38 7 0 12 11 22
33 29 28 9 29 10 7 10 -14 0 -40 -8 -58 -17z"/>
<path d="M782 1325 c-11 -12 -10 -15 3 -15 8 0 15 7 15 15 0 18 -2 18 -18 0z"/>
<path d="M950 1316 c0 -23 16 -27 17 -5 1 10 -2 19 -8 19 -5 0 -9 -6 -9 -14z"/>
<path d="M1527 1316 c-3 -8 1 -17 10 -20 20 -8 27 -1 20 19 -8 19 -23 20 -30
1z"/>
<path d="M1623 1311 c-15 -24 2 -54 17 -31 5 8 10 20 10 27 0 20 -15 23 -27 4z"/>
<path d="M2110 1316 c0 -9 5 -16 10 -16 6 0 10 4 10 9 0 6 -4 13 -10 16 -5 3
-10 -1 -10 -9z"/>
<path d="M570 1305 c-7 -8 -27 -15 -44 -15 l-31 -1 25 -15 c24 -14 23 -15 -23
-11 -44 4 -49 2 -58 -20 -13 -35 -38 -40 -59 -13 -19 25 -46 22 -56 -5 -10
-24 4 -31 19 -10 13 17 15 16 35 -13 24 -33 31 -70 8 -39 -19 25 -22 21 -18
-18 3 -23 -3 -45 -17 -68 -26 -43 -26 -46 0 -40 15 4 27 0 37 -13 13 -18 14
-18 6 6 -4 14 -6 32 -5 40 1 8 1 25 1 37 0 12 7 34 15 50 8 15 15 33 15 40 0
21 40 35 86 31 38 -3 44 -1 44 16 0 11 10 30 22 43 12 13 19 25 16 28 -3 3
-11 -1 -18 -10z"/>
<path d="M738 1313 c7 -3 16 -2 19 1 4 3 -2 6 -13 5 -11 0 -14 -3 -6 -6z"/>
<path d="M1690 1302 c0 -11 12 -24 26 -31 l26 -11 -22 30 c-25 35 -30 37 -30
12z"/>
<path d="M2345 1310 c-4 -6 -3 -16 3 -22 6 -6 12 -6 17 2 4 6 3 16 -3 22 -6 6
-12 6 -17 -2z"/>
<path d="M357 1296 c-3 -8 -2 -18 3 -21 13 -8 20 9 11 24 -6 10 -10 9 -14 -3z"/>
<path d="M1350 1300 c0 -5 -9 -10 -20 -10 -21 0 -25 -7 -12 -28 9 -13 42 -6
42 8 0 5 3 15 6 24 3 9 1 16 -5 16 -6 0 -11 -4 -11 -10z"/>
<path d="M1825 1299 c-4 -6 -5 -13 -2 -16 7 -7 27 6 27 18 0 12 -17 12 -25 -2z"/>
<path d="M1905 1285 l-30 -23 28 5 c16 3 31 12 34 20 9 24 -1 23 -32 -2z"/>
<path d="M613 1265 c-21 -33 -21 -34 -2 -51 23 -21 16 -34 -19 -34 -26 -1 -26
-1 -8 -15 18 -14 23 -12 52 16 36 34 57 31 48 -7 -6 -22 -4 -24 34 -24 23 0
44 -5 47 -10 11 -17 35 9 31 34 -2 11 -17 29 -35 39 -26 16 -30 16 -25 3 3 -8
11 -14 16 -13 22 4 17 -20 -6 -31 -25 -11 -46 0 -46 25 0 7 -4 13 -10 13 -5 0
-10 7 -10 15 0 16 34 38 44 28 3 -3 6 1 6 10 0 21 -18 22 -41 1 -17 -15 -19
-15 -30 10 -7 14 -15 26 -18 26 -3 -1 -16 -16 -28 -35z"/>
<path d="M1427 1267 c-6 -41 -1 -49 22 -35 16 10 17 13 5 26 -8 7 -12 17 -9
22 3 5 1 11 -4 14 -5 3 -11 -9 -14 -27z"/>
<path d="M1027 1265 c-10 -14 -23 -22 -32 -19 -24 9 -18 -19 8 -36 52 -34 73
-41 104 -35 18 3 33 12 33 19 0 24 -14 26 -37 4 l-23 -21 0 26 c0 15 9 32 22
41 12 9 18 19 14 23 -4 4 -11 2 -15 -6 -12 -19 -57 -10 -53 12 4 22 1 21 -21
-8z"/>
<path d="M1560 1275 c-21 -25 -6 -31 19 -7 18 16 20 22 9 22 -9 0 -21 -7 -28
-15z"/>
<path d="M2062 1273 c-9 -16 -9 -24 -1 -29 16 -10 28 8 19 31 -7 19 -7 19 -18
-2z"/>
<path d="M810 1251 c0 -11 -4 -23 -10 -26 -15 -9 -12 -25 4 -25 8 0 17 9 21
19 5 17 38 35 58 32 4 -1 7 4 7 9 0 15 -47 12 -53 -2 -4 -10 -6 -10 -6 0 -2
20 -21 14 -21 -7z"/>
<path d="M1213 1259 c-24 -9 -31 -29 -10 -29 19 0 40 16 36 28 -3 6 -13 6 -26
1z"/>
<path d="M2950 1256 c0 -9 5 -16 10 -16 6 0 10 4 10 9 0 6 -4 13 -10 16 -5 3
-10 -1 -10 -9z"/>
<path d="M2225 1250 c3 -5 8 -10 11 -10 2 0 4 5 4 10 0 6 -5 10 -11 10 -5 0
-7 -4 -4 -10z"/>
<path d="M2475 1240 c-3 -5 -1 -10 4 -10 6 0 11 5 11 10 0 6 -2 10 -4 10 -3 0
-8 -4 -11 -10z"/>
<path d="M3250 1240 c0 -5 6 -10 14 -10 8 0 16 -6 19 -12 2 -7 8 -9 13 -5 5 5
1 15 -10 23 -23 16 -36 18 -36 4z"/>
<path d="M930 1220 c0 -23 15 -27 23 -6 3 8 -1 17 -9 20 -9 4 -14 -1 -14 -14z"/>
<path d="M1321 1224 c0 -11 3 -14 6 -6 3 7 2 16 -1 19 -3 4 -6 -2 -5 -13z"/>
<path d="M1690 1225 c0 -8 -10 -23 -22 -35 l-22 -20 27 0 c21 0 27 5 27 21 0
16 4 19 21 14 18 -6 19 -5 7 14 -15 24 -38 28 -38 6z"/>
<path d="M1866 1225 c-5 -13 -14 -16 -37 -11 -22 4 -29 2 -26 -7 2 -6 0 -20
-4 -29 -6 -11 -4 -22 7 -32 20 -20 34 -20 34 -1 0 9 11 21 25 27 25 11 31 32
16 56 -6 11 -10 10 -15 -3z"/>
<path d="M2365 1230 c-3 -5 1 -10 9 -10 9 0 16 5 16 10 0 6 -4 10 -9 10 -6 0
-13 -4 -16 -10z"/>
<path d="M3190 1225 c0 -8 4 -15 9 -15 5 0 14 7 21 15 10 13 9 15 -9 15 -12 0
-21 -6 -21 -15z"/>
<path d="M1240 1222 c0 -6 -3 -17 -6 -26 -4 -10 -1 -16 9 -16 21 0 29 26 11
40 -9 8 -14 9 -14 2z"/>
<path d="M1526 1215 c-10 -8 -15 -18 -11 -24 3 -6 1 -11 -4 -11 -6 0 -11 -7
-11 -16 0 -9 -14 -21 -30 -27 -17 -6 -28 -17 -26 -24 5 -13 -30 -29 -53 -24
-7 1 -10 -2 -7 -8 4 -6 19 -8 34 -5 19 4 35 -1 52 -15 24 -19 24 -20 7 -38
-17 -17 -19 -17 -31 0 -18 23 -46 22 -46 -2 0 -10 -8 -22 -17 -26 -16 -6 -15
-8 5 -16 24 -9 26 -17 14 -37 -6 -9 -16 -10 -33 -3 -21 8 -25 6 -24 -13 0 -11
-3 -22 -8 -23 -4 -2 -23 -10 -43 -18 -45 -19 -55 -19 -30 0 18 14 18 16 3 33
-16 18 -16 20 0 34 10 8 27 18 38 23 20 7 20 7 -1 17 l-21 10 21 41 c11 23 23
44 28 47 9 7 -9 77 -22 85 -19 12 -30 -5 -17 -25 9 -16 9 -23 -6 -37 -16 -16
-17 -16 -17 5 0 26 -8 28 -25 6 -6 -9 -24 -16 -38 -16 -26 0 -27 -3 -21 -34 7
-39 -2 -76 -15 -56 -6 9 -12 7 -26 -8 -15 -17 -16 -20 -3 -20 22 0 43 -26 26
-33 -7 -3 -3 -6 10 -6 19 -1 22 4 22 33 0 41 23 65 45 46 19 -16 19 -27 0 -46
-10 -10 -13 -24 -9 -40 4 -14 2 -24 -2 -23 -5 1 -17 1 -26 0 -28 -2 -21 -21 8
-21 22 0 25 -4 22 -27 -2 -17 -8 -27 -16 -25 -8 1 -11 -2 -7 -8 9 -15 35 -12
35 3 0 33 81 43 103 13 5 -6 5 -1 2 12 -5 18 -2 22 15 22 11 0 23 -7 26 -15 4
-8 10 -15 15 -15 5 0 3 11 -3 25 -19 41 3 75 48 75 31 0 36 -3 31 -20 -3 -11
0 -23 6 -27 7 -3 9 -3 5 2 -4 4 -3 17 3 27 8 14 8 23 0 31 -18 18 -12 44 12
52 16 5 18 8 7 12 -36 15 -37 27 -7 57 16 17 25 32 18 34 -18 6 -12 22 8 22
23 0 40 -22 23 -28 -17 -5 -15 -22 3 -22 10 0 15 10 15 31 0 41 16 69 40 69
11 0 20 4 20 9 0 13 -34 24 -38 12 -10 -29 -40 -54 -57 -48 -14 6 -15 10 -5
22 18 21 8 36 -14 20z m-23 -116 c-17 -17 -37 -1 -22 17 8 10 15 12 23 4 7 -7
7 -13 -1 -21z m-218 -29 c4 -6 4 -18 1 -27 -5 -12 -9 -14 -18 -5 -7 7 -23 12
-37 12 -25 1 -25 1 -7 15 23 17 52 19 61 5z"/>
<path d="M1948 1195 c-2 -19 0 -35 4 -35 4 0 8 16 8 35 0 19 -2 35 -4 35 -2 0
-6 -16 -8 -35z"/>
<path d="M2070 1220 c0 -6 7 -10 15 -10 8 0 15 2 15 4 0 2 -7 6 -15 10 -8 3
-15 1 -15 -4z"/>
<path d="M2128 1223 c-20 -5 -23 -18 -8 -28 14 -9 12 -28 -2 -22 -16 5 -48
-10 -48 -23 0 -12 50 -13 67 -2 6 4 11 24 11 45 0 20 -1 36 -1 36 -1 -1 -10
-3 -19 -6z"/>
<path d="M2246 1190 c-7 -42 -35 -67 -71 -61 -11 2 -17 0 -13 -4 9 -9 -14 -34
-27 -29 -6 2 -15 -4 -22 -14 -9 -15 -7 -21 8 -30 12 -8 19 -8 19 -2 0 5 7 10
16 10 9 0 12 5 8 13 -6 10 -4 10 7 0 13 -13 49 -18 49 -7 0 3 -7 13 -16 22
-15 14 -15 17 2 29 11 8 27 12 37 9 10 -2 17 1 17 10 0 18 17 18 36 0 11 -11
19 -12 38 -3 26 13 25 29 -2 26 -40 -4 -54 1 -48 17 6 17 -9 54 -23 54 -5 0
-11 -18 -15 -40z"/>
<path d="M2945 1220 c-3 -5 -1 -10 4 -10 6 0 11 5 11 10 0 6 -2 10 -4 10 -3 0
-8 -4 -11 -10z"/>
<path d="M485 1195 c0 -14 3 -25 8 -25 18 0 5 -20 -18 -26 -13 -3 -30 -13 -37
-21 -10 -12 -8 -18 12 -33 16 -12 21 -24 17 -39 -7 -29 26 -29 45 1 17 26 52
19 41 -8 -5 -13 -3 -16 10 -11 19 7 24 -17 6 -28 -6 -5 -3 -13 10 -22 28 -19
26 -33 -3 -33 -14 0 -28 -4 -31 -10 -3 -5 3 -10 15 -10 13 0 19 -4 14 -11 -5
-8 -1 -8 14 0 15 8 21 8 25 -2 2 -6 4 6 3 28 -1 23 -8 45 -16 52 -8 6 -12 15
-8 19 4 4 15 1 23 -6 9 -8 19 -9 23 -4 4 5 6 8 3 7 -11 -6 -60 30 -66 48 -18
56 56 41 81 -16 11 -25 13 -26 14 -9 0 12 8 32 19 45 18 23 18 59 -1 59 -6 0
-7 -7 -4 -15 3 -9 0 -24 -6 -35 -9 -14 -16 -16 -30 -9 -10 5 -18 16 -18 24 0
18 -61 13 -94 -9 -35 -22 -49 -21 -41 5 5 16 4 19 -5 14 -8 -5 -11 -3 -8 6 3
8 14 14 25 14 18 1 53 26 53 38 0 3 -9 3 -20 0 -14 -4 -23 2 -31 21 -15 33
-24 33 -24 1z"/>
<path d="M860 1205 c7 -8 16 -12 21 -9 5 3 9 0 9 -6 0 -6 5 -8 11 -4 8 4 7 9
-2 15 -7 4 -17 5 -21 3 -4 -3 -8 0 -8 5 0 6 -5 11 -11 11 -8 0 -8 -5 1 -15z"/>
<path d="M2535 1210 c-3 -5 -1 -10 4 -10 6 0 11 5 11 10 0 6 -2 10 -4 10 -3 0
-8 -4 -11 -10z"/>
<path d="M2692 1208 c2 -6 10 -14 16 -16 7 -2 10 2 6 12 -7 18 -28 22 -22 4z"/>
<path d="M2416 1191 c-18 -20 -14 -41 7 -41 7 0 14 14 15 30 3 35 1 36 -22 11z"/>
<path d="M2605 1200 c3 -5 8 -10 11 -10 2 0 4 5 4 10 0 6 -5 10 -11 10 -5 0
-7 -4 -4 -10z"/>
<path d="M1180 1190 c0 -5 5 -10 11 -10 5 0 7 5 4 10 -3 6 -8 10 -11 10 -2 0
-4 -4 -4 -10z"/>
<path d="M2358 1193 c7 -3 16 -2 19 1 4 3 -2 6 -13 5 -11 0 -14 -3 -6 -6z"/>
<path d="M276 1165 c4 -18 1 -27 -10 -31 -14 -5 -14 -8 -1 -27 19 -28 19 -43
-1 -51 -15 -6 -15 -4 -3 11 12 16 12 17 -2 6 -9 -7 -20 -9 -24 -5 -5 4 -2 -5
7 -19 13 -20 14 -29 5 -39 -10 -10 -8 -10 8 0 36 22 70 130 45 145 -5 3 -7 12
-3 20 3 10 -1 15 -11 15 -12 0 -15 -6 -10 -25z"/>
<path d="M1748 1177 c20 -24 -6 -47 -52 -47 -46 0 -46 -15 -1 -30 24 -8 35
-18 35 -31 0 -10 5 -19 10 -19 6 0 10 11 10 24 0 13 6 26 12 28 7 3 13 19 14
37 1 23 -4 35 -20 43 -19 10 -20 10 -8 -5z"/>
<path d="M971 1164 c-7 -8 -11 -17 -9 -19 8 -8 53 10 56 23 3 17 -30 14 -47
-4z"/>
<path d="M1980 1165 c-14 -16 -3 -20 19 -6 8 5 9 11 3 15 -5 3 -15 -1 -22 -9z"/>
<path d="M2490 1144 c-7 -16 -16 -24 -28 -22 -10 1 -29 -7 -42 -20 -13 -12
-33 -22 -44 -22 -11 0 -27 -7 -37 -16 -10 -9 -36 -18 -58 -21 -24 -3 -41 -11
-41 -19 0 -20 -109 -69 -123 -55 -16 16 -25 14 -32 -9 -4 -12 -22 -24 -48 -31
-23 -7 -100 -30 -170 -52 -70 -22 -131 -37 -134 -33 -4 3 -1 6 5 6 7 0 12 14
12 30 0 20 -5 30 -15 30 -8 0 -15 -6 -15 -14 0 -15 -21 -26 -51 -26 -10 0 -19
-4 -19 -9 0 -15 32 -22 45 -11 9 7 15 8 19 1 4 -6 -3 -15 -15 -21 -17 -9 -24
-8 -40 6 -10 9 -19 27 -19 39 0 18 -5 20 -36 17 -19 -2 -33 -7 -30 -10 3 -3 1
-11 -5 -19 -9 -10 -8 -13 5 -13 25 0 19 -28 -10 -47 -21 -14 -31 -15 -56 -5
-24 9 -28 8 -18 -3 8 -10 0 -15 -42 -26 -29 -7 -64 -13 -78 -15 -14 -1 -61
-12 -105 -23 -43 -11 -90 -18 -104 -14 -16 4 -22 2 -17 -5 7 -12 -29 -26 -44
-17 -5 3 -10 2 -10 -3 0 -5 -39 -20 -87 -32 -97 -25 -115 -29 -283 -58 -63
-12 -130 -26 -148 -32 -18 -7 -42 -10 -54 -7 -12 3 -34 -1 -50 -9 -30 -16 -88
-11 -88 7 0 5 4 9 8 9 14 0 12 48 -2 53 -9 4 -12 0 -9 -11 5 -20 -50 -57 -73
-48 -24 9 -16 45 13 59 40 17 64 44 56 63 -3 9 -8 12 -12 5 -10 -16 -92 8
-117 34 -11 12 -27 25 -35 28 -12 5 -12 7 0 15 12 9 11 13 -4 28 -17 17 -17
17 -11 -4 5 -13 3 -22 -3 -22 -19 0 -12 -19 19 -52 30 -31 38 -44 20 -33 -5 3
-10 -2 -10 -13 0 -10 11 -24 25 -30 32 -15 32 -47 0 -68 -31 -20 -57 -15 -70
14 -5 12 -17 22 -25 22 -25 0 -39 21 -34 49 4 21 -1 31 -26 49 -23 18 -34 21
-44 13 -8 -6 -21 -9 -30 -5 -13 5 -16 -1 -16 -33 0 -27 4 -40 14 -40 8 0 12 6
9 14 -3 8 2 13 12 13 12 0 15 -5 10 -20 -5 -14 -2 -20 10 -20 8 0 18 -6 21
-14 3 -8 19 -18 35 -21 41 -9 35 -26 -18 -53 -43 -21 -47 -22 -64 -6 -23 21
-25 50 -4 58 8 3 15 10 15 16 0 16 -27 12 -34 -6 -11 -28 -6 -120 6 -132 9 -9
9 -12 0 -12 -9 0 -12 -58 -12 -230 l0 -230 1665 0 1665 0 0 421 c0 231 -4 418
-9 415 -4 -3 -17 1 -27 8 -11 8 -23 11 -29 6 -16 -14 -95 0 -95 17 0 10 -4 11
-19 3 -11 -5 -24 -10 -29 -10 -14 0 -82 65 -82 79 0 10 -3 11 -14 2 -21 -17
-67 3 -60 26 5 14 4 15 -4 4 -6 -8 -17 -11 -28 -7 -10 4 -21 1 -25 -5 -11 -18
-97 -14 -112 6 -4 6 -11 3 -18 -7 -13 -24 -54 -23 -78 1 -11 11 -28 17 -39 15
-13 -4 -24 3 -35 20 -11 16 -23 23 -32 20 -9 -4 -18 1 -22 12 -4 11 -15 25
-25 32 -22 16 -23 38 -3 46 8 3 15 10 15 16 0 8 -6 7 -20 0 -27 -15 -38 -6
-32 25 6 33 -6 32 -18 -1z m-28 -551 c24 -22 23 -68 -3 -94 -40 -40 -139 -7
-139 46 0 30 23 47 73 56 23 3 44 7 46 8 3 0 13 -6 23 -16z m-2214 -67 c14
-13 12 -15 -14 -21 -16 -3 -62 -14 -102 -25 -74 -21 -92 -20 -92 4 0 14 41 36
69 36 10 0 25 7 32 16 16 20 84 14 107 -10z m92 4 c0 -5 -2 -10 -4 -10 -3 0
-8 5 -11 10 -3 6 -1 10 4 10 6 0 11 -4 11 -10z m-150 -70 c0 -5 -5 -10 -11
-10 -5 0 -7 5 -4 10 3 6 8 10 11 10 2 0 4 -4 4 -10z m1220 -4 c0 -2 -9 -6 -20
-9 -11 -3 -20 -1 -20 4 0 5 9 9 20 9 11 0 20 -2 20 -4z"/>
<path d="M3017 1152 c-22 -24 -21 -28 3 -28 14 0 20 7 20 23 0 28 -2 28 -23 5z"/>
<path d="M3213 1154 c-6 -16 14 -36 31 -31 18 6 16 22 -4 35 -17 10 -21 10
-27 -4z"/>
<path d="M890 1140 c11 -20 30 -28 30 -12 0 11 -22 32 -32 32 -5 0 -4 -9 2
-20z"/>
<path d="M1362 1140 c0 -14 2 -19 5 -12 2 6 2 18 0 25 -3 6 -5 1 -5 -13z"/>
<path d="M1900 1150 c0 -5 5 -10 10 -10 6 0 10 5 10 10 0 6 -4 10 -10 10 -5 0
-10 -4 -10 -10z"/>
<path d="M2639 1143 c-13 -15 -12 -16 9 -11 17 5 22 2 22 -13 0 -10 7 -19 15
-19 22 0 18 37 -4 50 -25 13 -26 13 -42 -7z"/>
<path d="M108 1138 c18 -18 15 -25 -19 -37 -37 -13 -49 -8 -49 22 l-1 22 -12
-23 c-7 -12 -16 -19 -20 -16 -4 4 -7 -8 -6 -27 0 -19 3 -28 6 -21 6 16 28 15
43 -3 10 -12 10 -18 -1 -32 -13 -15 -12 -15 9 -2 22 14 29 29 13 29 -5 0 -11
7 -15 15 -4 10 6 18 34 26 28 8 39 18 43 35 3 19 0 24 -16 24 -16 0 -18 -3 -9
-12z"/>
<path d="M1085 1123 c-3 -13 -9 -23 -14 -23 -5 0 -7 -9 -4 -20 3 -11 10 -20
15 -20 5 0 7 9 3 19 -3 11 1 26 10 35 19 19 21 19 45 6 13 -7 19 -6 23 4 4 10
0 12 -14 9 -10 -3 -19 -1 -19 5 0 21 -39 8 -45 -15z"/>
<path d="M2824 1134 c3 -8 6 -20 6 -25 0 -6 5 -7 10 -4 15 10 12 32 -6 39 -12
5 -15 2 -10 -10z"/>
<path d="M70 1129 c0 -5 5 -7 10 -4 6 3 10 8 10 11 0 2 -4 4 -10 4 -5 0 -10
-5 -10 -11z"/>
<path d="M164 1129 c-2 -4 1 -9 8 -11 6 -2 -4 -14 -24 -26 -20 -12 -42 -30
-49 -39 -11 -13 -11 -15 -1 -9 9 5 15 1 18 -12 3 -10 20 -25 37 -33 18 -8 31
-20 29 -27 -1 -6 2 -12 8 -12 17 0 11 16 -14 43 -27 29 -26 54 6 99 10 14 18
28 18 30 0 8 -31 5 -36 -3z"/>
<path d="M818 1120 c-10 -9 -18 -23 -18 -31 0 -11 -2 -11 -8 -2 -6 10 -15 10
-40 1 -27 -10 -32 -19 -38 -56 -3 -23 -9 -40 -12 -37 -7 7 -72 -55 -72 -69 0
-6 13 4 29 22 17 17 38 32 48 32 14 0 19 7 18 26 0 15 7 30 15 34 8 4 29 15
47 24 17 9 42 16 56 16 24 0 42 23 32 40 -10 16 -41 16 -57 0z"/>
<path d="M970 1122 c0 -4 -6 -17 -14 -27 -12 -17 -16 -18 -32 -5 -16 13 -17
13 -12 -1 4 -9 3 -20 -2 -25 -5 -5 6 -10 26 -12 38 -2 64 14 56 37 -3 10 2 11
18 6 15 -5 21 -3 18 5 -2 6 -8 12 -13 12 -6 0 -18 4 -27 9 -10 5 -18 6 -18 1z"/>
<path d="M2000 1109 c0 -11 4 -18 10 -14 5 3 7 12 3 20 -7 21 -13 19 -13 -6z"/>
<path d="M2912 1105 c-7 -15 -8 -25 -2 -25 6 0 10 7 10 15 0 8 5 15 10 15 6 0
10 5 10 10 0 19 -17 10 -28 -15z"/>
<path d="M1130 1101 c0 -5 6 -11 13 -14 7 -3 2 -9 -12 -14 -14 -6 -20 -12 -14
-16 15 -10 40 1 48 20 3 9 0 20 -7 25 -17 10 -28 10 -28 -1z"/>
<path d="M1662 1091 c-12 -7 -6 -19 18 -38 12 -9 15 -7 16 12 2 25 -15 38 -34
26z"/>
<path d="M1875 1090 c-3 -5 -1 -10 4 -10 6 0 11 5 11 10 0 6 -2 10 -4 10 -3 0
-8 -4 -11 -10z"/>
<path d="M1933 1075 c-30 -29 -29 -36 2 -22 14 7 25 20 25 30 0 20 1 21 -27
-8z"/>
<path d="M2860 1070 c0 -24 15 -27 24 -4 9 22 8 24 -9 24 -8 0 -15 -9 -15 -20z"/>
<path d="M3017 1083 c-10 -9 -9 -23 2 -23 5 0 11 7 15 15 5 15 -5 20 -17 8z"/>
<path d="M1355 1070 c-3 -5 -1 -10 4 -10 6 0 11 5 11 10 0 6 -2 10 -4 10 -3 0
-8 -4 -11 -10z"/>
<path d="M1599 1073 c-33 -5 -64 -37 -56 -57 4 -11 17 -14 47 -11 29 3 43 0
47 -11 5 -13 43 -21 43 -9 0 3 -14 19 -31 36 -25 24 -28 33 -19 44 7 8 9 14 4
14 -5 -1 -21 -4 -35 -6z"/>
<path d="M2014 1067 c-3 -9 -16 -17 -29 -17 -13 0 -25 -6 -28 -14 -5 -11 1
-12 31 -4 47 12 60 24 44 40 -9 9 -13 7 -18 -5z"/>
<path d="M2615 1070 c3 -5 8 -10 11 -10 2 0 4 5 4 10 0 6 -5 10 -11 10 -5 0
-7 -4 -4 -10z"/>
<path d="M2803 1059 c-13 -5 -23 -12 -23 -17 0 -4 -12 -12 -27 -18 l-26 -9 26
-14 c24 -13 29 -12 45 2 10 10 26 17 35 17 9 0 17 5 17 10 0 6 -4 10 -9 10 -5
0 -11 6 -13 14 -2 10 -9 11 -25 5z"/>
<path d="M3080 1057 c0 -12 -9 -17 -28 -17 -28 0 -69 -35 -53 -45 5 -2 14 2
21 10 7 9 21 13 35 9 18 -4 24 0 29 21 4 15 5 30 1 33 -3 3 -5 -2 -5 -11z"/>
<path d="M3130 1060 c-8 -5 -12 -12 -9 -15 8 -8 39 5 39 16 0 11 -11 11 -30
-1z"/>
<path d="M1034 1052 c-7 -4 -14 -18 -15 -32 l-4 -25 -23 25 -23 25 7 -29 c5
-22 3 -32 -11 -43 -16 -11 -16 -13 -3 -13 23 0 30 -28 10 -40 -14 -9 -12 -10
8 -4 33 9 35 11 21 28 -9 11 -8 17 5 30 15 16 18 16 35 0 15 -14 21 -15 34 -4
14 12 13 15 -6 33 -12 11 -19 27 -16 38 5 20 -1 23 -19 11z"/>
<path d="M2935 1033 c3 -15 12 -31 18 -35 17 -10 22 -1 7 17 -7 8 -10 22 -6
30 3 9 0 15 -10 15 -13 0 -15 -6 -9 -27z"/>
<path d="M825 1037 c-13 -8 -20 -23 -20 -42 0 -25 -5 -32 -35 -41 -33 -11 -33
-12 -10 -19 15 -5 25 -4 28 4 2 6 12 11 23 11 15 0 19 7 19 40 0 27 6 42 18
49 9 6 13 10 7 10 -5 -1 -19 -6 -30 -12z"/>
<path d="M2630 1030 c0 -5 5 -10 10 -10 6 0 10 5 10 10 0 6 -4 10 -10 10 -5 0
-10 -4 -10 -10z"/>
<path d="M1 1003 c-1 -25 2 -31 14 -27 16 7 21 24 6 24 -5 0 -12 8 -14 18 -3
9 -5 3 -6 -15z"/>
<path d="M1728 1023 c7 -3 16 -2 19 1 4 3 -2 6 -13 5 -11 0 -14 -3 -6 -6z"/>
<path d="M1850 1020 c0 -5 -5 -10 -11 -10 -16 0 -36 -24 -31 -38 2 -7 -2 -19
-8 -27 -19 -22 -4 -45 27 -44 15 0 22 3 16 6 -16 6 -17 39 -3 48 6 4 8 10 5
15 -3 5 -1 11 5 15 9 6 18 0 55 -32 18 -17 20 -17 50 11 16 15 22 27 15 31 -5
3 -10 2 -10 -2 0 -5 -9 -14 -19 -20 -16 -10 -23 -9 -41 7 -19 16 -21 22 -10
35 11 13 9 15 -14 15 -14 0 -26 -4 -26 -10z"/>
<path d="M3183 1013 c9 -9 19 -14 23 -11 10 10 -6 28 -24 28 -15 0 -15 -1 1
-17z"/>
<path d="M440 1008 c0 -19 -27 -32 -33 -15 -2 7 -4 -3 -4 -20 0 -30 1 -31 14
-14 7 11 22 21 32 23 18 3 18 5 5 22 -11 16 -14 17 -14 4z"/>
<path d="M2130 1010 c-8 -5 -12 -11 -9 -14 7 -8 49 5 49 15 0 12 -21 11 -40
-1z"/>
<path d="M900 990 c0 -5 5 -10 11 -10 5 0 7 5 4 10 -3 6 -8 10 -11 10 -2 0 -4
-4 -4 -10z"/>
<path d="M3235 990 c3 -5 13 -10 21 -10 8 0 14 5 14 10 0 6 -9 10 -21 10 -11
0 -17 -4 -14 -10z"/>
<path d="M1591 969 c-13 -10 -19 -19 -15 -19 5 -1 -2 -10 -15 -20 -23 -20 -23
-20 -2 -20 12 0 21 6 21 14 0 8 11 24 25 34 14 11 22 23 18 25 -5 3 -19 -3
-32 -14z"/>
<path d="M497 959 c4 -15 0 -19 -23 -19 -17 0 -24 -4 -18 -9 5 -5 23 -7 40 -4
25 4 31 9 27 23 -3 10 -11 21 -18 24 -9 3 -11 -2 -8 -15z"/>
<path d="M2005 970 c-3 -5 -1 -10 4 -10 6 0 11 5 11 10 0 6 -2 10 -4 10 -3 0
-8 -4 -11 -10z"/>
<path d="M3140 970 c0 -5 5 -10 10 -10 6 0 10 5 10 10 0 6 -4 10 -10 10 -5 0
-10 -4 -10 -10z"/>
<path d="M30 959 c0 -6 -8 -18 -17 -25 -10 -7 -15 -15 -12 -18 3 -3 16 5 28
18 14 15 19 26 12 31 -6 3 -11 1 -11 -6z"/>
<path d="M260 948 c0 -5 -4 -6 -10 -3 -6 3 -10 -4 -10 -18 0 -15 -12 -34 -31
-50 -38 -31 -63 -26 -55 12 l6 26 -16 -22 c-13 -18 -26 -23 -61 -23 -38 0 -44
-2 -34 -14 10 -12 8 -14 -13 -12 -26 3 -35 -7 -16 -19 5 -3 10 -11 10 -16 0
-6 -4 -8 -9 -5 -5 3 -12 -1 -15 -9 -4 -13 -2 -13 14 -5 10 5 28 10 40 10 13 0
20 5 17 13 -14 38 40 62 73 32 15 -14 21 -14 54 0 20 9 34 20 31 24 -3 5 13
25 35 44 22 18 40 36 40 39 0 3 -11 6 -25 6 -14 0 -25 -5 -25 -10z"/>
<path d="M1680 950 c-13 -8 -13 -10 2 -10 9 0 20 5 23 10 8 13 -5 13 -25 0z"/>
<path d="M3110 938 c0 -19 2 -20 10 -8 13 19 13 30 0 30 -5 0 -10 -10 -10 -22z"/>
<path d="M321 939 c3 -24 -1 -40 -8 -36 -5 3 -14 -1 -21 -9 -14 -15 -9 -17 26
-8 23 7 31 47 11 59 -6 4 -10 1 -8 -6z"/>
<path d="M853 930 c-8 -12 -19 -16 -33 -13 -14 4 -20 1 -20 -10 0 -9 -10 -19
-22 -23 -21 -7 -19 -9 12 -14 32 -4 35 -8 32 -34 -3 -20 0 -26 8 -21 7 4 10
19 6 36 -4 22 0 33 24 52 23 20 26 28 17 36 -9 7 -16 5 -24 -9z"/>
<path d="M1108 923 c-10 -20 -20 -27 -35 -25 -12 2 -25 -2 -29 -9 -4 -8 -3 -9
4 -5 6 4 21 2 32 -4 15 -8 20 -8 20 2 0 6 12 25 27 40 21 22 23 28 10 28 -9 0
-22 -12 -29 -27z"/>
<path d="M143 933 c-21 -8 -15 -22 7 -16 11 3 20 9 20 14 0 10 -8 10 -27 2z"/>
<path d="M1450 930 c0 -5 5 -10 11 -10 5 0 7 5 4 10 -3 6 -8 10 -11 10 -2 0
-4 -4 -4 -10z"/>
<path d="M3206 931 c-4 -7 -5 -15 -2 -18 9 -9 19 4 14 18 -4 11 -6 11 -12 0z"/>
<path d="M1878 923 c7 -3 16 -2 19 1 4 3 -2 6 -13 5 -11 0 -14 -3 -6 -6z"/>
<path d="M540 911 c0 -6 -8 -11 -19 -11 -13 0 -20 -9 -24 -32 -6 -40 -2 -45
18 -28 8 7 21 10 29 7 20 -8 28 42 10 60 -8 8 -14 10 -14 4z"/>
<path d="M903 905 c0 -18 19 -15 25 3 2 7 -3 12 -10 12 -8 0 -15 -7 -15 -15z"/>
<path d="M1460 887 c0 -14 7 -27 15 -31 10 -3 15 1 15 13 0 10 -7 24 -15 31
-13 11 -15 9 -15 -13z"/>
<path d="M627 879 c-20 -11 -39 -24 -43 -31 -6 -10 -5 -10 7 -1 19 15 70 20
88 8 11 -6 8 -11 -13 -22 -15 -8 -24 -18 -21 -23 4 -6 0 -10 -8 -10 -10 0 -13
-8 -9 -25 2 -14 8 -25 13 -25 5 0 6 6 3 13 -3 8 2 20 10 27 13 10 20 9 41 -4
20 -13 25 -14 25 -2 0 7 14 16 30 20 17 3 30 10 30 15 0 6 -6 8 -14 5 -8 -3
-26 2 -40 12 -23 15 -25 18 -10 28 14 10 11 14 -18 23 -28 8 -41 7 -71 -8z
m50 -65 c-3 -3 -12 -4 -19 -1 -8 3 -5 6 6 6 11 1 17 -2 13 -5z"/>
<path d="M387 883 c-4 -3 -7 -11 -7 -17 0 -6 5 -5 12 2 6 6 9 14 7 17 -3 3 -9
2 -12 -2z"/>
<path d="M960 871 c0 -8 -6 -11 -16 -7 -8 3 -12 2 -9 -4 3 -6 2 -10 -4 -10 -5
0 -12 -12 -14 -27 -3 -22 -4 -20 -3 6 0 20 -4 35 -12 37 -7 1 -8 0 -3 -2 5 -3
5 -20 1 -39 -4 -20 -4 -35 1 -35 5 0 9 -11 9 -25 0 -31 -37 -55 -46 -30 -4 9
-2 21 5 28 15 15 14 24 -5 31 -12 5 -14 1 -8 -17 3 -12 3 -19 -1 -15 -5 4 -15
2 -24 -5 -14 -11 -14 -10 -2 6 8 9 11 20 7 24 -3 3 -6 1 -6 -5 0 -7 -6 -12
-13 -12 -7 0 -13 -9 -13 -20 0 -13 7 -20 19 -20 10 0 26 -4 35 -9 10 -5 30 -7
45 -4 24 5 27 9 23 39 -2 19 1 37 6 40 5 3 7 13 3 22 -3 9 -3 13 1 9 4 -4 13
-2 20 4 9 7 18 6 33 -3 11 -7 24 -8 28 -4 4 5 2 11 -5 13 -7 3 -22 14 -33 26
-11 13 -19 16 -19 8z"/>
<path d="M301 848 c0 -10 -10 -27 -21 -38 -17 -17 -18 -21 -5 -26 8 -4 22 -1
30 6 8 6 19 9 25 5 5 -3 10 -1 10 4 0 6 -5 11 -12 11 -6 0 -9 3 -5 6 12 12 47
-8 47 -28 0 -14 -5 -18 -15 -14 -22 8 -18 -4 9 -29 25 -23 39 -23 30 -1 -3 7
2 26 11 42 16 32 20 59 4 32 -5 -10 -15 -18 -20 -18 -6 0 -7 5 -3 12 5 7 3 8
-6 3 -9 -5 -10 -2 -6 13 6 18 4 19 -28 12 -28 -6 -36 -5 -39 9 -4 14 -5 14 -6
-1z"/>
<path d="M1125 850 c3 -5 10 -10 16 -10 5 0 9 5 9 10 0 6 -7 10 -16 10 -8 0
-12 -4 -9 -10z"/>
<path d="M1326 829 c12 -13 20 -16 22 -9 3 7 -2 16 -9 21 -25 16 -32 9 -13
-12z"/>
<path d="M1430 836 c0 -2 9 -6 20 -9 11 -3 20 -1 20 4 0 5 -9 9 -20 9 -11 0
-20 -2 -20 -4z"/>
<path d="M566 822 c-3 -6 -1 -14 5 -17 14 -9 20 -2 10 14 -6 8 -11 9 -15 3z"/>
<path d="M977 799 c-7 -26 5 -31 37 -16 25 12 36 37 15 37 -5 0 -7 -4 -4 -10
4 -7 -2 -7 -18 -1 -21 8 -26 6 -30 -10z"/>
<path d="M1175 810 c-3 -5 -2 -10 4 -10 5 0 13 5 16 10 3 6 2 10 -4 10 -5 0
-13 -4 -16 -10z"/>
<path d="M1280 790 c0 -28 2 -29 20 -18 14 9 23 9 30 2 8 -8 22 -5 50 9 49 24
51 34 5 29 -19 -2 -32 -8 -30 -13 3 -4 -10 -2 -29 6 -46 20 -46 20 -46 -15z"/>
<path d="M1105 780 c14 -16 20 -17 26 -8 5 8 2 16 -9 20 -30 12 -35 8 -17 -12z"/>
<path d="M435 780 c-3 -5 -1 -10 4 -10 6 0 11 5 11 10 0 6 -2 10 -4 10 -3 0
-8 -4 -11 -10z"/>
<path d="M1143 762 c-4 -17 -10 -22 -24 -18 -11 3 -27 9 -37 12 -10 3 -34 -6
-55 -21 -41 -27 -58 -26 -50 4 3 11 -2 21 -11 24 -9 4 -16 2 -16 -3 0 -6 5
-10 11 -10 6 0 8 -8 5 -17 -3 -10 -2 -24 3 -31 7 -12 14 -11 41 3 17 9 48 15
69 14 20 -2 42 1 49 5 7 4 22 7 35 6 38 -3 43 -1 55 25 7 14 12 27 12 28 0 1
-18 2 -40 3 -35 1 -41 -3 -47 -24z"/>
<path d="M61 771 c-8 -5 -9 -11 -3 -15 5 -3 12 1 16 9 6 17 6 18 -13 6z"/>
<path d="M298 763 c7 -3 16 -2 19 1 4 3 -2 6 -13 5 -11 0 -14 -3 -6 -6z"/>
<path d="M501 748 c-1 -19 1 -19 56 -22 36 -1 40 3 21 22 -14 14 -52 16 -43 2
3 -5 0 -10 -9 -10 -8 0 -17 6 -19 13 -3 7 -6 5 -6 -5z"/>
<path d="M695 720 c-15 -5 -11 -8 20 -13 54 -9 75 -9 75 2 0 4 -11 6 -25 3
-14 -2 -31 0 -38 6 -6 5 -21 6 -32 2z"/>
<path d="M930 701 c0 -17 -63 -52 -80 -45 -12 4 -12 3 -3 -7 10 -10 20 -9 50
6 21 11 44 19 51 18 16 -1 15 5 -3 23 -8 9 -15 11 -15 5z"/>
<path d="M565 669 c-3 -10 -12 -23 -21 -29 -11 -10 -18 -10 -32 4 -21 18 -32
21 -32 6 0 -5 -17 -26 -37 -46 -30 -28 -32 -32 -10 -18 20 12 39 15 75 10 56
-7 63 -3 83 49 15 38 15 41 -3 41 -10 0 -20 -8 -23 -17z"/>
<path d="M653 675 c-3 -9 -3 -18 -1 -21 3 -3 8 4 11 16 6 23 -1 27 -10 5z"/>
<path d="M770 678 c0 -4 4 -8 9 -8 6 0 12 4 15 8 3 5 -1 9 -9 9 -8 0 -15 -4
-15 -9z"/>
<path d="M689 659 c-8 -45 -4 -55 18 -41 8 5 8 12 -3 26 -8 11 -14 18 -15 15z"/>
</g>
</svg>
