<?xml version="1.0" standalone="no"?>
<!DOCTYPE svg PUBLIC "-//W3C//DTD SVG 20010904//EN"
 "http://www.w3.org/TR/2001/REC-SVG-20010904/DTD/svg10.dtd">
<svg version="1.0" xmlns="http://www.w3.org/2000/svg"
 width="980.000000pt" height="980.000000pt" viewBox="0 0 980.000000 980.000000"
 preserveAspectRatio="xMidYMid meet">

<g transform="translate(0.000000,980.000000) scale(0.100000,-0.100000)"
fill="#000000" stroke="none">
<path d="M5295 8153 c-615 -48 -1164 -305 -1590 -744 -399 -412 -635 -925
-685 -1494 -41 -461 51 -926 267 -1348 64 -125 90 -157 128 -157 31 0 75 41
75 70 0 11 -27 71 -59 133 -141 264 -229 557 -262 865 -16 154 -7 442 20 597
19 110 55 264 63 269 2 1 44 21 93 43 178 81 364 135 390 113 6 -5 17 -28 24
-51 17 -56 80 -122 143 -149 42 -18 65 -21 118 -18 133 10 235 91 311 249 72
148 163 229 363 323 212 99 345 232 391 390 54 186 -64 345 -397 538 -48 28
-85 54 -82 59 9 15 286 99 409 124 248 50 550 57 795 20 201 -31 452 -106 643
-194 l68 -32 -67 -72 c-225 -242 -304 -381 -304 -532 1 -102 44 -170 129 -200
65 -23 114 -19 251 20 165 47 226 47 329 1 100 -45 145 -51 221 -32 59 15 226
91 236 108 14 22 37 -5 127 -152 66 -107 207 -404 207 -436 0 -12 -90 7 -144
31 -111 49 -227 54 -339 16 -72 -25 -173 -77 -229 -118 l-47 -34 -98 49 c-111
56 -146 66 -198 56 -49 -9 -89 -52 -131 -142 -135 -292 -130 -515 14 -643 l44
-39 2 -72 c1 -60 6 -81 28 -119 79 -134 246 -187 389 -123 33 15 62 24 65 21
4 -3 10 -79 14 -169 6 -142 11 -172 34 -233 33 -87 77 -168 169 -312 86 -135
116 -155 171 -112 38 30 34 68 -13 137 -70 104 -160 266 -186 336 -23 61 -27
89 -30 213 -5 177 -20 238 -72 283 -32 29 -41 32 -82 28 -28 -3 -65 -17 -94
-35 -26 -17 -63 -34 -81 -37 -44 -8 -108 17 -141 56 -22 26 -25 38 -23 101 1
87 -14 121 -77 173 -67 55 -79 83 -79 184 1 93 27 188 84 300 35 69 26 69 161
-2 68 -35 91 -42 138 -43 52 0 61 4 101 38 52 44 182 110 253 128 62 15 133 6
205 -25 67 -30 131 -45 189 -46 53 0 56 -4 87 -161 87 -431 43 -901 -119
-1301 -68 -168 -70 -174 -57 -203 16 -34 57 -49 93 -35 30 13 58 65 116 215
209 546 213 1167 11 1720 -150 412 -432 802 -778 1079 -306 244 -724 434
-1100 497 -183 31 -445 45 -605 32z m-773 -452 c188 -95 345 -210 398 -289 37
-56 38 -99 6 -169 -50 -106 -145 -184 -330 -272 -192 -90 -302 -192 -391 -361
-52 -98 -68 -119 -120 -154 -41 -28 -97 -34 -139 -15 -24 11 -56 63 -56 91 0
24 -39 78 -72 98 -41 25 -147 27 -232 5 -48 -13 -180 -60 -250 -90 -16 -7 -17
-5 -11 16 19 63 141 297 212 404 184 279 444 532 714 697 125 77 143 86 160
87 9 1 59 -21 111 -48z m2239 -87 c125 -84 291 -225 397 -339 45 -48 82 -91
82 -95 0 -11 -174 -90 -212 -96 -25 -5 -48 1 -84 19 -131 66 -274 74 -429 23
-44 -14 -105 -29 -135 -32 -74 -8 -85 4 -78 90 6 75 33 129 114 231 62 78 232
265 241 265 4 0 50 -30 104 -66z"/>
<path d="M4365 6171 c-33 -9 -95 -34 -137 -55 -129 -65 -211 -144 -277 -266
-53 -99 -71 -173 -71 -293 0 -122 11 -168 67 -286 76 -159 201 -264 393 -331
83 -29 120 -58 153 -117 30 -57 57 -178 58 -265 0 -93 14 -159 35 -175 27 -20
71 -16 95 8 21 21 21 28 16 158 -6 157 -18 221 -58 310 -54 119 -116 175 -240
217 -140 47 -227 110 -290 207 -129 199 -107 444 54 606 63 64 208 139 282
147 60 6 80 -3 199 -99 112 -89 168 -116 279 -133 200 -32 287 -118 308 -302
12 -110 31 -163 75 -201 36 -32 115 -60 173 -62 59 -2 86 -13 83 -34 -6 -34
-64 -108 -168 -216 -110 -115 -107 -109 -128 -221 -19 -98 -50 -163 -136 -284
-78 -109 -86 -139 -45 -179 48 -49 76 -32 174 104 85 118 126 205 151 318 l18
84 94 97 c145 150 208 260 193 338 -3 19 -22 52 -41 73 -37 42 -73 55 -188 71
-38 5 -76 16 -84 24 -9 9 -18 47 -22 98 -10 98 -30 165 -72 231 -69 109 -186
179 -339 203 -104 17 -139 33 -224 101 -185 148 -237 165 -380 124z"/>
<path d="M7679 4425 c-146 -29 -237 -80 -471 -265 -187 -147 -422 -303 -562
-371 -65 -33 -125 -59 -132 -59 -22 0 -54 -42 -54 -72 0 -39 32 -68 74 -68
111 0 479 223 826 499 196 157 363 222 493 192 179 -40 217 -184 85 -327 -78
-85 -758 -670 -952 -819 -277 -212 -384 -275 -1051 -621 -492 -255 -637 -260
-1460 -59 -267 65 -357 81 -545 95 -247 19 -508 -14 -695 -86 -49 -20 -99 -38
-110 -40 -17 -4 -42 34 -170 257 -82 144 -198 346 -257 448 -60 102 -108 188
-107 191 0 3 41 34 90 70 102 73 228 187 369 333 297 308 520 429 836 453 157
12 303 -17 616 -120 285 -95 289 -95 733 -106 505 -13 599 -21 679 -58 144
-67 213 -178 186 -298 -15 -67 -53 -112 -117 -141 -64 -29 -83 -30 -463 -18
-351 11 -556 -7 -803 -71 -161 -41 -326 -114 -347 -154 -16 -29 -12 -75 8 -92
36 -31 53 -29 142 16 105 54 252 99 420 127 153 25 561 37 775 21 225 -16 336
10 432 104 80 78 98 125 98 254 0 93 -3 112 -27 162 -50 107 -159 200 -288
244 -87 31 -242 42 -665 50 -199 3 -366 11 -420 20 -49 7 -182 43 -295 80
-259 84 -362 110 -493 125 -235 26 -520 -39 -728 -167 -114 -70 -197 -142
-409 -351 -179 -176 -335 -312 -385 -335 -17 -7 -29 0 -71 40 -75 73 -170 98
-264 72 -49 -14 -448 -245 -487 -282 -52 -50 -77 -112 -77 -193 0 -81 1 -83
157 -352 57 -98 208 -360 337 -583 128 -223 249 -422 268 -443 71 -73 184
-104 274 -73 68 24 437 240 480 281 51 50 72 99 76 180 3 55 -1 80 -17 118
-12 27 -21 50 -21 52 0 9 165 65 245 83 276 64 560 52 927 -39 522 -129 713
-163 928 -163 131 0 169 3 244 23 161 42 345 125 716 321 63 34 169 90 235
124 261 138 508 307 780 535 542 455 770 659 827 738 79 108 95 232 45 336
-46 93 -128 153 -249 182 -75 18 -121 18 -209 0z m-5331 -1012 c17 -16 64 -84
103 -153 150 -263 347 -604 485 -842 128 -220 144 -253 144 -293 0 -66 -34
-96 -260 -225 -182 -104 -198 -111 -239 -107 -31 3 -51 13 -71 33 -15 16 -139
223 -275 459 -136 237 -290 503 -342 592 -51 89 -99 176 -105 194 -13 37 2 97
30 122 10 9 108 68 218 132 226 130 254 138 312 88z"/>
<path d="M2561 2344 c-12 -15 -21 -34 -21 -43 0 -23 126 -242 151 -263 41 -35
102 -13 114 41 5 25 -5 49 -56 138 -34 59 -71 118 -82 131 -29 32 -79 30 -106
-4z"/>
</g>
</svg>
