<?xml version="1.0" standalone="no"?>
<!DOCTYPE svg PUBLIC "-//W3C//DTD SVG 20010904//EN"
 "http://www.w3.org/TR/2001/REC-SVG-20010904/DTD/svg10.dtd">
<svg version="1.0" xmlns="http://www.w3.org/2000/svg"
 width="512.000000pt" height="512.000000pt" viewBox="0 0 512.000000 512.000000"
 preserveAspectRatio="xMidYMid meet">

<g transform="translate(0.000000,512.000000) scale(0.100000,-0.100000)"
fill="#000000" stroke="none">
<path d="M2467 5110 c-45 -12 -111 -44 -153 -76 -38 -30 -106 -54 -150 -54
-18 0 -63 7 -101 16 -98 23 -179 14 -270 -31 -72 -35 -111 -72 -186 -174 -40
-56 -104 -89 -193 -102 -174 -24 -300 -137 -344 -309 -24 -93 -60 -152 -115
-186 -24 -16 -65 -42 -90 -58 -58 -36 -120 -117 -147 -192 -18 -52 -20 -73
-14 -180 7 -146 -2 -180 -74 -268 -57 -69 -88 -141 -96 -225 -8 -77 9 -149 58
-248 49 -100 53 -154 19 -256 -18 -55 -22 -84 -19 -150 5 -119 42 -194 148
-295 44 -42 86 -93 94 -113 8 -20 19 -80 25 -134 20 -192 109 -301 300 -366
60 -21 121 -63 121 -83 0 -7 -95 -242 -211 -522 -199 -479 -211 -512 -207
-561 6 -65 44 -118 106 -145 60 -27 80 -23 356 62 172 53 232 68 242 59 7 -6
63 -106 125 -222 61 -117 123 -225 138 -241 69 -75 183 -74 254 1 24 26 197
426 423 983 45 110 51 120 64 100 5 -8 25 -53 44 -100 226 -557 399 -957 423
-983 71 -75 185 -76 254 -1 15 16 77 124 138 241 62 116 118 216 125 222 10 9
71 -6 242 -59 278 -85 296 -89 356 -62 62 27 100 80 106 145 4 49 -8 82 -207
561 -116 280 -211 515 -211 522 0 20 61 62 121 83 191 65 281 175 300 369 6
52 17 111 25 131 8 20 50 71 94 113 106 101 143 176 148 295 3 66 -1 95 -19
150 -35 105 -31 161 20 259 92 176 76 334 -48 482 -62 73 -72 113 -65 256 6
107 4 128 -14 180 -27 75 -88 155 -146 192 -25 16 -66 42 -91 57 -55 35 -91
93 -115 187 -45 174 -170 285 -350 310 -92 13 -151 46 -193 108 -118 172 -272
240 -450 198 -38 -9 -83 -16 -101 -16 -45 0 -112 25 -153 56 -64 49 -139 76
-221 80 -42 2 -94 -1 -115 -6z m206 -174 c23 -14 75 -42 115 -62 92 -46 183
-56 286 -30 121 31 215 -4 285 -104 86 -122 174 -178 318 -200 124 -20 207
-96 231 -213 24 -120 92 -212 204 -279 38 -22 84 -58 102 -79 49 -57 58 -101
50 -229 -6 -98 -4 -116 16 -181 16 -50 39 -91 73 -133 64 -79 80 -117 80 -191
1 -50 -5 -73 -37 -133 -71 -140 -80 -238 -36 -368 44 -126 24 -191 -91 -305
-48 -48 -97 -105 -108 -127 -28 -55 -51 -146 -51 -202 0 -25 -5 -62 -11 -83
-15 -54 -92 -130 -154 -152 -150 -53 -222 -114 -283 -237 -68 -141 -124 -178
-269 -178 -152 -1 -230 -29 -328 -122 -114 -106 -200 -124 -328 -66 -67 31
-80 33 -177 33 -97 0 -110 -2 -177 -32 -126 -58 -210 -42 -320 59 -32 29 -74
63 -94 75 -53 33 -143 53 -241 53 -145 0 -201 37 -270 175 -63 128 -130 186
-282 240 -100 36 -166 126 -166 226 0 64 -21 153 -51 211 -11 22 -60 79 -108
127 -115 114 -135 179 -91 305 45 130 35 231 -37 368 -33 61 -38 81 -37 132 1
75 18 115 77 187 27 32 58 85 73 125 25 65 26 76 20 187 -8 137 1 179 50 236
18 21 64 57 102 79 112 67 180 159 204 279 24 117 107 193 231 213 144 22 232
78 318 200 68 98 165 135 277 106 126 -33 250 -12 360 61 29 20 70 42 90 50
52 19 133 10 185 -21z m-1173 -3591 c72 -37 117 -47 225 -50 131 -3 162 -15
250 -99 31 -31 81 -67 110 -80 64 -31 165 -47 228 -37 26 4 47 7 47 5 0 -10
-382 -920 -389 -927 -5 -5 -16 -7 -23 -5 -7 3 -65 104 -128 223 -63 120 -124
229 -134 243 -24 30 -90 62 -131 62 -16 0 -140 -34 -275 -75 -134 -42 -250
-73 -257 -71 -7 3 -13 11 -13 18 0 7 82 212 182 455 l183 441 46 -43 c25 -23
61 -50 79 -60z m2434 -354 c97 -234 176 -430 176 -437 0 -7 -5 -16 -10 -19 -6
-4 -122 28 -258 69 -137 42 -261 76 -277 76 -50 0 -115 -39 -145 -87 -16 -24
-74 -132 -131 -240 -57 -107 -109 -198 -117 -200 -7 -3 -18 -1 -23 4 -8 8
-389 916 -389 927 0 1 23 -1 51 -4 121 -16 237 24 331 115 87 83 123 98 253
100 147 3 235 37 315 119 30 32 35 34 41 19 4 -10 86 -209 183 -442z"/>
<path d="M2413 4590 c-123 -13 -273 -50 -389 -95 -133 -52 -171 -71 -265 -131
-361 -234 -606 -599 -675 -1008 -16 -96 -16 -99 3 -125 14 -18 31 -27 56 -29
45 -4 74 22 82 75 3 21 16 83 29 138 118 503 520 890 1039 1002 117 26 418 25
537 0 523 -112 946 -532 1045 -1037 26 -134 34 -159 56 -170 33 -18 80 -8 102
21 19 26 19 29 3 125 -70 411 -317 777 -686 1016 -255 165 -623 251 -937 218z"/>
<path d="M2515 4169 c-61 -17 -79 -51 -185 -344 -56 -154 -105 -283 -109 -288
-4 -4 -135 -12 -292 -18 -156 -5 -299 -12 -317 -15 -46 -7 -99 -57 -113 -106
-9 -33 -7 -49 6 -84 14 -37 38 -60 153 -151 290 -227 352 -277 352 -283 0 -3
-36 -131 -80 -284 -44 -153 -80 -297 -80 -320 0 -58 31 -103 86 -128 37 -16
53 -18 84 -10 20 5 148 84 283 176 135 91 251 166 257 166 7 0 123 -75 258
-167 136 -91 263 -170 283 -176 30 -7 46 -5 83 11 56 25 86 70 86 129 0 23
-36 167 -80 320 -44 153 -80 280 -80 284 0 3 109 91 241 194 207 161 244 194
261 231 24 56 16 104 -24 150 -17 19 -46 38 -66 44 -21 5 -167 14 -326 20
-159 5 -293 13 -297 17 -4 5 -53 134 -109 288 -108 298 -124 327 -189 345 -41
11 -45 11 -86 -1z m150 -444 c100 -278 120 -316 173 -336 25 -10 361 -28 535
-29 42 0 77 -3 77 -7 0 -5 -93 -80 -206 -168 -255 -198 -269 -212 -282 -258
-12 -44 -12 -44 84 -380 37 -126 64 -231 61 -234 -3 -3 -115 68 -249 158 -323
218 -274 217 -583 8 -126 -86 -240 -161 -251 -167 -19 -10 -13 17 58 261 43
150 79 290 80 312 2 78 5 76 -379 373 -62 48 -113 90 -113 95 0 4 35 7 78 7
173 1 509 19 534 29 53 20 73 58 173 336 55 151 102 275 105 275 3 0 50 -124
105 -275z"/>
<path d="M1103 2985 c-33 -23 -36 -63 -13 -176 121 -598 571 -1051 1173 -1181
138 -30 435 -32 572 -5 612 124 1072 581 1195 1186 23 113 20 153 -13 176 -29
20 -59 19 -89 -5 -21 -16 -28 -36 -42 -112 -101 -557 -524 -984 -1083 -1095
-131 -25 -376 -23 -510 6 -554 117 -973 555 -1063 1108 -9 58 -17 77 -37 93
-31 24 -61 26 -90 5z"/>
</g>
</svg>
