<?xml version="1.0" standalone="no"?>
<!DOCTYPE svg PUBLIC "-//W3C//DTD SVG 20010904//EN"
 "http://www.w3.org/TR/2001/REC-SVG-20010904/DTD/svg10.dtd">
<svg version="1.0" xmlns="http://www.w3.org/2000/svg"
 width="1200.000000pt" height="1200.000000pt" viewBox="0 0 1200.000000 1200.000000"
 preserveAspectRatio="xMidYMid meet">

<g transform="translate(0.000000,1200.000000) scale(0.100000,-0.100000)"
fill="#000000" stroke="none">
<path d="M2735 10310 c-293 -25 -343 -40 -370 -103 -19 -46 -33 -180 -47 -434
-18 -341 6 -718 67 -1048 218 -1184 880 -1921 1940 -2159 374 -84 866 -103
1325 -52 63 7 117 12 119 10 6 -5 -28 -543 -49 -774 -25 -262 -62 -554 -96
-755 -14 -82 -27 -151 -28 -152 -2 -2 -23 -9 -48 -17 l-45 -13 -139 82 c-274
161 -874 515 -1174 692 -360 212 -361 213 -467 246 -296 94 -643 19 -872 -188
-29 -27 -48 -34 -96 -40 -249 -29 -466 -145 -614 -330 -31 -39 -64 -86 -75
-106 -14 -27 -31 -40 -75 -57 -84 -33 -227 -130 -303 -205 -167 -167 -241
-329 -241 -522 1 -162 57 -305 166 -422 66 -70 82 -81 372 -260 116 -72 383
-237 595 -368 212 -131 502 -310 645 -398 143 -87 334 -205 425 -262 758 -471
949 -578 1215 -682 321 -125 631 -204 1010 -254 149 -20 213 -23 520 -24 376
0 492 9 775 61 371 68 672 168 1022 338 457 222 925 351 1436 397 155 14 611
7 745 -11 79 -10 91 -10 124 7 20 10 46 31 57 46 21 28 21 33 24 1350 2 885 0
1334 -7 1358 -6 19 -21 45 -33 57 -23 21 -930 528 -1089 607 -515 260 -1184
228 -1904 -90 -194 -86 -463 -235 -630 -350 -191 -131 -530 -334 -540 -323 -5
5 -41 276 -60 458 -28 273 -69 885 -60 900 2 4 50 1 107 -6 57 -7 205 -18 330
-25 820 -43 1523 146 2023 545 91 73 263 243 335 331 375 461 595 1085 650
1840 25 349 -1 920 -46 1007 -32 62 -94 77 -399 98 -665 47 -1359 -57 -1883
-281 -447 -191 -817 -493 -1065 -869 -86 -130 -205 -369 -256 -515 -22 -60
-42 -103 -45 -95 -153 429 -311 694 -565 950 -438 441 -1032 697 -1841 795
-157 19 -707 29 -865 15z m6584 -280 c49 -4 87 -13 91 -20 30 -49 24 -776 -9
-1015 -79 -580 -244 -1025 -517 -1391 -81 -110 -281 -308 -394 -391 -322 -236
-678 -369 -1150 -428 -242 -31 -655 -30 -914 1 l-49 6 1108 1108 1108 1108 4
49 c6 61 -14 105 -60 133 -35 22 -96 26 -130 9 -12 -6 -518 -506 -1123 -1111
-975 -974 -1102 -1098 -1107 -1077 -3 13 -11 116 -18 229 -63 1104 251 1874
957 2340 418 276 979 433 1654 464 105 4 448 -4 549 -14z m-5818 -6 c1051 -99
1774 -531 2125 -1269 163 -343 244 -751 244 -1234 0 -182 -15 -487 -26 -520
-3 -10 -378 358 -1047 1027 l-1042 1042 -50 0 c-32 0 -62 -7 -83 -20 -53 -32
-78 -119 -51 -173 6 -12 475 -486 1042 -1054 l1030 -1031 -34 -6 c-75 -13
-324 -26 -491 -26 -904 0 -1568 288 -1995 865 -295 398 -468 916 -523 1570
-18 220 -8 800 15 823 24 24 650 29 886 6z m2540 -4409 c11 -110 31 -282 44
-382 14 -100 25 -188 25 -196 0 -9 -38 -30 -102 -56 -57 -23 -105 -41 -108
-41 -4 0 4 66 17 148 28 176 71 549 79 682 6 106 17 146 21 85 2 -22 13 -130
24 -240z m2869 194 c102 -15 222 -47 316 -84 47 -19 308 -157 580 -307 l494
-273 0 -1184 0 -1183 -22 6 c-51 13 -412 18 -571 7 -594 -40 -1094 -172 -1637
-431 -234 -112 -386 -171 -591 -230 -728 -209 -1530 -198 -2264 32 -329 102
-534 201 -940 452 -115 71 -491 302 -835 514 -344 212 -719 443 -835 515 -115
71 -255 158 -310 192 -373 231 -446 279 -484 320 -112 121 -120 299 -21 444
167 246 457 364 748 305 110 -22 173 -55 577 -299 198 -120 468 -283 600 -363
132 -79 243 -147 247 -151 4 -3 -4 -42 -19 -86 -37 -114 -43 -280 -15 -391 38
-152 123 -293 224 -374 67 -53 174 -105 273 -132 117 -32 432 -32 665 0 664
91 1198 225 1815 454 220 81 242 93 265 139 11 21 20 50 20 65 0 69 -64 134
-132 134 -19 0 -111 -29 -204 -64 -626 -236 -1192 -378 -1809 -455 -233 -29
-347 -35 -453 -22 -208 26 -318 103 -384 270 -17 44 -22 77 -22 151 0 83 4
105 31 172 75 187 244 346 463 435 82 33 212 58 429 83 680 78 1231 299 1951
780 428 287 847 466 1272 545 183 34 410 39 578 14z m-5270 -237 c79 -28 104
-41 442 -240 167 -99 454 -268 638 -376 330 -195 364 -216 344 -216 -32 0
-194 -24 -285 -41 l-107 -21 -700 410 c-385 226 -716 419 -736 428 -20 10 -36
21 -36 26 0 6 79 33 155 52 46 12 231 -3 285 -22z m-595 -273 c41 -15 286
-153 595 -334 289 -170 569 -334 622 -364 54 -31 98 -59 98 -62 0 -4 -26 -26
-57 -50 -32 -23 -87 -71 -123 -105 l-65 -62 -315 190 c-814 493 -949 573
-1006 599 -73 33 -197 67 -276 76 -32 3 -58 9 -58 14 0 9 81 58 137 83 79 35
144 45 263 43 93 -3 128 -8 185 -28z"/>
</g>
</svg>
